Coordinates
version=1
nRows=5
nColumns=40
inDegrees=yes

Units are S.I. units (second, meters, Newtons, ...)
Angles are in degrees.

endheader
time	pelvis_tilt	pelvis_list	pelvis_rotation	pelvis_tx	pelvis_ty	pelvis_tz	hip_flexion_r	hip_adduction_r	hip_rotation_r	knee_angle_r	knee_angle_r_beta	ankle_angle_r	subtalar_angle_r	mtp_angle_r	hip_flexion_l	hip_adduction_l	hip_rotation_l	knee_angle_l	knee_angle_l_beta	ankle_angle_l	subtalar_angle_l	mtp_angle_l	lumbar_extension	lumbar_bending	lumbar_rotation	arm_flex_r	arm_add_r	arm_rot_r	elbow_flex_r	pro_sup_r	wrist_flex_r	wrist_dev_r	arm_flex_l	arm_add_l	arm_rot_l	elbow_flex_l	pro_sup_l	wrist_flex_l	wrist_dev_l
     54.91000000	     -5.96737289	     -6.34195907	      1.20091108	      1.05970363	      0.93072079	      0.51750670	     13.65026706	      5.30811481	    -16.35818668	     11.93649659	     11.93649659	      6.80705262	      5.68844941	     -3.08723086	     36.30972998	    -12.34476043	      4.04133510	     67.07550671	     67.07550671	      9.77252607	    -18.18372015	     11.65930019	    -11.80666965	      7.78818284	      3.56239488	     24.87763645	    -15.65162225	      7.06109720	     42.85783560	     45.19295796	      0.00000000	      0.00000000	      9.01848773	     -9.81060225	      5.57102799	     41.41467503	     45.28707538	      0.00000000	      0.00000000
     54.92221429	     -5.97292638	     -6.21601425	      1.52230910	      1.05838666	      0.93095978	      0.51744591	     12.99951009	      5.25294182	    -16.27664691	     11.54488592	     11.54488592	      7.11533216	      5.46673346	     -3.27888072	     37.53121415	    -12.09368067	      4.03069054	     65.10420665	     65.10420665	      9.89543759	    -18.36227035	     11.76386421	    -11.78884643	      7.61008935	      3.05123968	     27.31231359	    -15.31509569	      6.97549363	     44.72565389	     45.14612271	      0.00000000	      0.00000000	      7.33275317	     -9.80961706	      5.76488501	     39.83757210	     45.25007992	      0.00000000	      0.00000000
     54.93442857	     -5.96565140	     -6.11415027	      1.86190349	      1.05708597	      0.93112694	      0.51730074	     12.33730133	      5.22276380	    -16.20416455	     11.14535769	     11.14535769	      7.39851924	      5.20715486	     -3.53023107	     38.56485846	    -11.84330209	      3.98871910	     62.86497995	     62.86497995	     10.00219491	    -18.42765022	     11.90278191	    -11.81238776	      7.50340569	      2.59190288	     29.64039118	    -15.06525433	      7.07116536	     46.86793740	     45.08053924	      0.00000000	      0.00000000	      5.84040632	     -9.70643140	      5.93190393	     37.86319347	     45.21990410	      0.00000000	      0.00000000
     54.94664286	     -5.96489360	     -6.03644003	      2.16386817	      1.05580563	      0.93121569	      0.51713359	     11.66160808	      5.24588830	    -16.04602872	     10.65500839	     10.65500839	      7.34474063	      4.71897472	     -4.49573177	     39.40851148	    -11.57793969	      3.95516928	     60.35644300	     60.35644300	     10.02662122	    -18.42194690	     11.92863357	    -11.85148854	      7.41038274	      3.04191024	     30.96762818	    -16.12313131	      8.39241576	     50.96066345	     44.90815483	      0.00000000	      0.00000000	      5.76647856	     -8.92602434	      5.79440856	     33.36859479	     45.29804469	      0.00000000	      0.00000000
     54.95885714	     -5.95633693	     -5.92038368	      2.46718253	      1.05458772	      0.93129179	      0.51681328	     11.04726027	      5.17580220	    -15.99754322	     10.35196062	     10.35196062	      7.70693552	      4.56404194	     -4.63417628	     40.03154445	    -11.20408491	      3.92468272	     57.55512908	     57.55512908	     10.07638153	    -18.37029247	     12.23444939	    -11.88866834	      7.28655868	      2.65133017	     33.24963245	    -15.87013057	      8.18862726	     52.78697201	     44.86977700	      0.00000000	      0.00000000	      4.29670117	     -8.84624871	      5.91893343	     32.05256389	     45.26942434	      0.00000000	      0.00000000
